<svg xmlns="http://www.w3.org/2000/svg" width="35" height="35" viewBox="0 0 35 35">
  <defs>
    <style>
      .cls-1 {
        fill: #1060ad;
        fill-rule: evenodd;
      }
    </style>
  </defs>
  <path id="Forma_1" data-name="Forma 1" class="cls-1" d="M1475.08,36.119a17.5,17.5,0,0,0-28.84,18.322,0.712,0.712,0,0,0,1.34-.483,16.078,16.078,0,1,1,26.78,5.613,0.962,0.962,0,0,0-.1.109c-0.06.064-.12,0.129-0.19,0.192a16.084,16.084,0,0,1-22.73,0,0.914,0.914,0,0,1-.1-0.1c0-.066-0.01-0.131-0.01-0.194,0-.143.01-0.286,0.01-0.429,0-.048.01-0.095,0.01-0.142a2.691,2.691,0,0,1,.02-0.283c0-.056.01-0.112,0.01-0.168a2.184,2.184,0,0,0,.02-0.254l0.03-.178,0.03-.24,0.03-.181a1.878,1.878,0,0,1,.04-0.233l0.03-.183c0.02-.076.03-0.152,0.05-0.227s0.03-.122.05-0.183a1.749,1.749,0,0,1,.05-0.222c0.02-.061.03-0.122,0.05-0.182l0.06-.218,0.06-.181a1.743,1.743,0,0,1,.07-0.214l0.06-.178c0.03-.07.05-0.141,0.08-0.21s0.05-.117.07-0.176,0.05-.138.08-0.206,0.05-.116.08-0.174l0.09-.2c0.03-.057.05-0.114,0.08-0.171a1.891,1.891,0,0,0,.1-0.2l0.09-.166a1.871,1.871,0,0,1,.11-0.2l0.09-.163c0.04-.064.07-0.128,0.11-0.192s0.07-.107.1-0.16l0.12-.188c0.04-.052.07-0.1,0.11-0.155l0.12-.184c0.04-.051.07-0.1,0.11-0.151s0.09-.12.14-0.18a1.324,1.324,0,0,1,.11-0.147c0.05-.059.09-0.117,0.14-0.175l0.12-.142,0.15-.171,0.12-.137c0.05-.056.11-0.111,0.16-0.167a1.545,1.545,0,0,1,.13-0.132c0.05-.055.11-0.108,0.16-0.162s0.09-.085.13-0.127c0.06-.054.12-0.106,0.17-0.158s0.09-.081.14-0.12l0.18-.155c0.04-.038.09-0.076,0.13-0.113,0.06-.051.13-0.1,0.19-0.152,0.05-.035.09-0.071,0.14-0.105,0.07-.051.13-0.1,0.2-0.151,0.05-.032.09-0.064,0.13-0.095,0.08-.054.16-0.105,0.24-0.157a1,1,0,0,1,.11-0.077c0.1-.066.21-0.13,0.31-0.193,0.02-.01.03-0.02,0.05-0.03q0.18-.108.36-0.21c0.04-.023.09-0.045,0.13-0.068,0.08-.044.16-0.088,0.25-0.13,0.05-.027.11-0.052,0.16-0.078,0.07-.033.13-0.066,0.2-0.1a6.941,6.941,0,0,0,9.61,0,11.6,11.6,0,0,1,5.7,5.807,0.711,0.711,0,1,0,1.3-.574,12.808,12.808,0,0,0-6.05-6.354,6.96,6.96,0,0,0-5.75-10.867,0.713,0.713,0,1,0,0,1.425,5.526,5.526,0,0,1,4.1,9.236h0a5.51,5.51,0,0,1-8.21,0h0a5.522,5.522,0,0,1,.21-7.635,0.712,0.712,0,1,0-1-1.013,6.963,6.963,0,0,0-.86,8.852c-0.01,0-.01.007-0.02,0.011-0.06.028-.11,0.057-0.16,0.086-0.09.044-.17,0.087-0.26,0.133-0.06.032-.11,0.066-0.17,0.1-0.08.044-.16,0.088-0.23,0.133l-0.18.108c-0.07.045-.15,0.09-0.22,0.137l-0.18.116-0.21.142c-0.06.041-.11,0.082-0.17,0.124s-0.14.1-.2,0.148-0.12.086-.17,0.13c-0.07.051-.13,0.1-0.2,0.154-0.05.045-.11,0.09-0.16,0.136s-0.13.106-.19,0.16-0.11.094-.16,0.141l-0.18.167c-0.05.048-.1,0.1-0.16,0.146s-0.11.115-.17,0.173l-0.15.15c-0.06.06-.11,0.121-0.17,0.181s-0.09.1-.14,0.153-0.11.127-.17,0.191c-0.04.051-.09,0.1-0.13,0.154-0.06.067-.11,0.135-0.16,0.2-0.04.051-.09,0.1-0.13,0.152-0.05.073-.11,0.149-0.16,0.224-0.04.047-.07,0.093-0.11,0.141-0.07.1-.14,0.2-0.2,0.3l-0.06.078q-0.12.188-.24,0.381a0.925,0.925,0,0,0-.08.134c-0.05.085-.11,0.171-0.16,0.257l-0.09.164-0.12.236a1.432,1.432,0,0,0-.09.178l-0.12.23-0.09.186c-0.03.076-.07,0.152-0.1,0.23s-0.05.128-.08,0.192a2.364,2.364,0,0,1-.1.231c-0.02.065-.05,0.131-0.07,0.2l-0.09.234a1.6,1.6,0,0,1-.07.2c-0.02.079-.05,0.157-0.07,0.237l-0.06.2a2.164,2.164,0,0,0-.07.241l-0.06.2-0.06.245a1.544,1.544,0,0,1-.05.206,2.238,2.238,0,0,1-.05.25c-0.01.068-.03,0.137-0.04,0.206-0.01.085-.03,0.171-0.04,0.257l-0.03.2a2.44,2.44,0,0,0-.04.267,1.33,1.33,0,0,0-.02.2l-0.03.281c-0.01.063-.01,0.125-0.02,0.188,0,0.1-.01.21-0.01,0.316a0.827,0.827,0,0,0-.01.157c-0.01.158-.01,0.317-0.01,0.476s0,0.335.01,0.515a0.5,0.5,0,0,0,.02.121v0.009a0.461,0.461,0,0,0,.04.112v0.011a0.415,0.415,0,0,0,.05.1c0.01,0,.01.008,0.01,0.012,0.02,0.032.05,0.062,0.07,0.089,0,0,.01,0,0.01.007l0.09,0.1c0.07,0.076.14,0.152,0.22,0.226a17.516,17.516,0,0,0,24.75,0c0.08-.074.15-0.15,0.22-0.226l0.09-.1A17.516,17.516,0,0,0,1475.08,36.119Z" transform="translate(-1445.22 -31)"/>
</svg>
