<svg xmlns="http://www.w3.org/2000/svg" width="23.97" height="24" viewBox="0 0 23.97 24">
  <defs>
    <style>
      .cls-1 {
        fill: #fff;
        fill-rule: evenodd;
      }
    </style>
  </defs>
  <path id="Shape_1_copie" data-name="Shape 1 copie" class="cls-1" d="M1270.99,3312.86a2.384,2.384,0,0,0-1.72-.79,2.417,2.417,0,0,0-1.73.79l-1.61,1.59c-0.13-.07-0.26-0.13-0.39-0.2-0.18-.09-0.35-0.18-0.5-0.27a17.352,17.352,0,0,1-4.18-3.8,10.56,10.56,0,0,1-1.37-2.16c0.42-.38.8-0.78,1.18-1.16,0.14-.14.28-0.29,0.43-0.43a2.324,2.324,0,0,0,0-3.5l-1.39-1.39c-0.16-.16-0.32-0.32-0.47-0.48-0.31-.31-0.63-0.64-0.96-0.94a2.39,2.39,0,0,0-1.7-.75,2.452,2.452,0,0,0-1.72.75c-0.01,0-.01,0-0.01.01l-1.73,1.74a3.676,3.676,0,0,0-1.1,2.35,8.814,8.814,0,0,0,.65,3.76,21.757,21.757,0,0,0,3.88,6.47,23.878,23.878,0,0,0,7.96,6.22,12.4,12.4,0,0,0,4.47,1.32c0.1,0,.21.01,0.31,0.01a3.807,3.807,0,0,0,2.93-1.26,0.038,0.038,0,0,0,.02-0.02,12.739,12.739,0,0,1,.89-0.92c0.22-.21.44-0.43,0.66-0.65a2.516,2.516,0,0,0,.77-1.76,2.449,2.449,0,0,0-.78-1.74Zm1.82,5.34h0c-0.2.21-.4,0.4-0.62,0.62a11.768,11.768,0,0,0-.98,1.01,2.445,2.445,0,0,1-1.91.81,1.7,1.7,0,0,1-.23-0.01,10.917,10.917,0,0,1-3.96-1.18,22.669,22.669,0,0,1-7.5-5.86,20.5,20.5,0,0,1-3.65-6.08,7.224,7.224,0,0,1-.57-3.18,2.319,2.319,0,0,1,.7-1.5l1.73-1.73a1.166,1.166,0,0,1,.77-0.36,1.084,1.084,0,0,1,.74.35,0.038,0.038,0,0,0,.02.02c0.31,0.29.6,0.59,0.91,0.91,0.16,0.16.32,0.32,0.48,0.49l1.39,1.38a0.963,0.963,0,0,1,0,1.57c-0.15.15-.29,0.3-0.44,0.44-0.42.44-.83,0.84-1.27,1.24-0.01.01-.02,0.01-0.03,0.02a1.044,1.044,0,0,0-.26,1.15c0.01,0.02.01,0.03,0.02,0.05a10.894,10.894,0,0,0,1.64,2.67v0.01a18.664,18.664,0,0,0,4.51,4.09c0.21,0.13.42,0.24,0.62,0.34s0.36,0.18.51,0.27c0.02,0.01.04,0.03,0.06,0.04a1.147,1.147,0,0,0,.5.12,1.055,1.055,0,0,0,.77-0.35l1.74-1.73a1.137,1.137,0,0,1,.76-0.38,1.059,1.059,0,0,1,.74.37l0.01,0.01,2.79,2.79A1,1,0,0,1,1272.81,3318.2Zm-7.83-14.5a6.523,6.523,0,0,1,5.32,5.31,0.7,0.7,0,0,0,.68.57c0.04,0,.07-0.01.11-0.01a0.7,0.7,0,0,0,.57-0.8,7.887,7.887,0,0,0-6.44-6.42A0.686,0.686,0,0,0,1264.98,3303.7Zm11.03,4.88a13.016,13.016,0,0,0-10.6-10.59,0.694,0.694,0,0,0-.79.56,0.684,0.684,0,0,0,.56.79,11.63,11.63,0,0,1,9.48,9.46,0.677,0.677,0,0,0,.67.57c0.04,0,.08-0.01.12-0.01A0.679,0.679,0,0,0,1276.01,3308.58Z" transform="translate(-1252.03 -3298)"/>
</svg>
