<svg xmlns="http://www.w3.org/2000/svg" width="19" height="29" viewBox="0 0 19 29">
  <defs>
    <style>
      .cls-1 {
        fill: #fff;
        fill-rule: evenodd;
      }
    </style>
  </defs>
  <path id="Forma_1_copie_2" data-name="Forma 1 copie 2" class="cls-1" d="M1262.5,3167c-5.24,0-9.5,4.57-9.5,10.2a10.74,10.74,0,0,0,1.42,5.36l7.54,13.04a0.774,0.774,0,0,0,.67.4h0.01a0.784,0.784,0,0,0,.67-0.41l7.35-13.17a10.729,10.729,0,0,0,1.34-5.22C1272,3171.57,1267.74,3167,1262.5,3167Zm6.8,14.55-6.68,11.97-6.86-11.86a8.965,8.965,0,0,1-1.19-4.46c0-4.69,3.56-8.51,7.93-8.51s7.92,3.82,7.92,8.51A8.971,8.971,0,0,1,1269.3,3181.55Zm-6.8-9.45a5.108,5.108,0,1,0,4.75,5.1A4.934,4.934,0,0,0,1262.5,3172.1Zm0,8.51a3.419,3.419,0,1,1,3.17-3.41A3.307,3.307,0,0,1,1262.5,3180.61Z" transform="translate(-1253 -3167)"/>
</svg>
