<svg xmlns="http://www.w3.org/2000/svg" width="25" height="22" viewBox="0 0 25 22">
  <defs>
    <style>
      .cls-1 {
        fill: #fff;
        fill-rule: evenodd;
      }
    </style>
  </defs>
  <path id="Shape_1_copie_2" data-name="Shape 1 copie 2" class="cls-1" d="M1276.98,3242.31a0.5,0.5,0,0,0-.02-0.12,0.626,0.626,0,0,0-.25-0.33l-3.58-2.35V3237a0.624,0.624,0,0,0-.64-0.6h-4.12l-3.5-2.3a0.687,0.687,0,0,0-.73,0l-3.53,2.3h-4.1a0.624,0.624,0,0,0-.64.6v2.48l-3.59,2.35a0.575,0.575,0,0,0-.28.48v0.01l0.02,13.08a0.569,0.569,0,0,0,.19.42,0.627,0.627,0,0,0,.45.18h0l23.7-.03a0.624,0.624,0,0,0,.64-0.6Zm-3.85-1.33,2.04,1.34-2.04,1.34v-2.68Zm-8.63-5.65,1.63,1.07h-3.27Zm-7.35,2.28h14.7v6.89l-4.94,3.23-2.01-1.47h-0.01a0.661,0.661,0,0,0-.77,0l-2.03,1.48-4.94-3.21v-6.92Zm-1.28,3.34v2.74l-2.1-1.37Zm-2.59,2.52,7.75,5.05-7.73,5.65Zm1.25,11.32,9.98-7.29,9.94,7.27Zm13.44-6.28,7.73-5.06,0.02,10.72Zm0.86-8.49h-8.66a0.6,0.6,0,1,0,0,1.2h8.66A0.6,0.6,0,1,0,1268.83,3240.02Zm0,3.13h-8.66a0.606,0.606,0,1,0,0,1.21h8.66A0.606,0.606,0,1,0,1268.83,3243.15Z" transform="translate(-1252 -3234)"/>
</svg>
