<svg xmlns="http://www.w3.org/2000/svg" width="65" height="65" viewBox="0 0 65 65">
  <defs>
    <style>
      .cls-1 {
        fill: #60bb48;
        fill-rule: evenodd;
      }
    </style>
  </defs>
  <path id="Forma_1" data-name="Forma 1" class="cls-1" d="M552.473,1394.81a1.275,1.275,0,1,0,.372.9A1.3,1.3,0,0,0,552.473,1394.81Zm42.4,1.41-9.179-9.18a7.241,7.241,0,0,0-10.259,0l-3.2,3.2h0l-1.279,1.28-15.491-15.49,4.48-4.48a7.263,7.263,0,0,0,0-10.26l-9.171-9.17a7.26,7.26,0,0,0-10.259,0l-2.419,2.42a20.875,20.875,0,0,0,0,29.49l8.92,8.92a1.271,1.271,0,1,0,1.8-1.8l-8.92-8.92a18.337,18.337,0,0,1-1.571-24.11l9.642,9.64a1.268,1.268,0,0,0,1.8-1.79l-9.752-9.75,2.3-2.31a4.734,4.734,0,0,1,6.667,0l9.172,9.17a4.723,4.723,0,0,1,0,6.67l-5.379,5.38a1.273,1.273,0,0,0-.372.9,1.25,1.25,0,0,0,.372.89l17.288,17.29a1.262,1.262,0,0,0,1.8,0l1.279-1.28,15.739,15.74a18.329,18.329,0,0,1-24.113-1.57l-9.048-9.05a1.262,1.262,0,0,0-1.795,0,1.275,1.275,0,0,0,0,1.8l9.047,9.04a20.85,20.85,0,0,0,29.493,0l2.419-2.42A7.243,7.243,0,0,0,594.875,1396.22Zm-1.795,8.46-2.3,2.3-15.847-15.84,2.3-2.31a4.716,4.716,0,0,1,6.667,0l9.18,9.18A4.72,4.72,0,0,1,593.08,1404.68Zm-40.238-35.63a1.274,1.274,0,0,0-1.795,0,1.281,1.281,0,0,0-.372.9,1.27,1.27,0,1,0,2.539,0A1.277,1.277,0,0,0,552.842,1369.05Zm39.631,7.37a21.828,21.828,0,0,0-23.636-23.62,1.556,1.556,0,0,0,.275,3.1,18.7,18.7,0,0,1,20.259,20.24,1.565,1.565,0,0,0,.453,1.24,1.538,1.538,0,0,0,.966.45A1.556,1.556,0,0,0,592.473,1376.42Zm-10.711-12.92a15.583,15.583,0,0,0-12.371-4.51,1.556,1.556,0,0,0,.275,3.1,12.477,12.477,0,0,1,13.5,13.5,1.565,1.565,0,0,0,.453,1.24,1.586,1.586,0,0,0,.966.45,1.557,1.557,0,0,0,1.683-1.42A15.577,15.577,0,0,0,581.762,1363.5Zm-4.4,4.39a9.352,9.352,0,0,0-7.424-2.7,1.544,1.544,0,0,0-1.413,1.68,1.559,1.559,0,0,0,1.688,1.42,6.229,6.229,0,0,1,6.752,6.75,1.558,1.558,0,0,0,3.1.27A9.356,9.356,0,0,0,577.366,1367.89Z" transform="translate(-532 -1350)"/>
</svg>
