<svg id="TEL" xmlns="http://www.w3.org/2000/svg" width="35.004" height="35" viewBox="0 0 35.004 35">
  <defs>
    <style>
      .cls-1 {
        fill: #1060ad;
        fill-rule: evenodd;
      }
    </style>
  </defs>
  <path id="Forma_1" data-name="Forma 1" class="cls-1" d="M991.764,58.942c0,0.052-.006.1-0.008,0.157q-0.009.237-.009,0.476c0,0.172.006,0.335,0.013,0.515a0.611,0.611,0,0,0,.016.121s0,0.006,0,.009a0.71,0.71,0,0,0,.036.112l0,0.011a0.653,0.653,0,0,0,.054.1,0.072,0.072,0,0,0,.008.012,0.679,0.679,0,0,0,.07.089l0,0.007,0.094,0.1c0.071,0.076.142,0.152,0.216,0.226a17.522,17.522,0,0,0,24.755,0c0.07-.074.14-0.15,0.22-0.226l0.09-.1a17.5,17.5,0,1,0-29.151-6.113,0.712,0.712,0,1,0,1.34-.483,16.079,16.079,0,1,1,26.781,5.613c-0.04.036-.07,0.072-0.11,0.109-0.06.064-.11,0.129-0.18,0.192a16.092,16.092,0,0,1-22.737,0l-0.1-.1c0-.066,0-0.131,0-0.194,0-.143,0-0.286.008-0.429,0-.048.006-0.095,0.008-0.142m0.016-.283" transform="translate(-987.156 -31)"/>
  <path class="cls-1" d="M1009.52,54.954a24.854,24.854,0,0,1-8.17,6.634,12.449,12.449,0,0,1-4.577,1.4c-0.111,0-.216.01-0.327,0.01a3.728,3.728,0,0,1-2.937-1.308,0.146,0.146,0,0,1-.019-0.025,12.533,12.533,0,0,0-.926-0.995c-0.225-.224-0.456-0.458-0.677-0.7a2.46,2.46,0,0,1,.01-3.576l2.884-2.989a2.3,2.3,0,0,1,1.689-.806,2.374,2.374,0,0,1,1.708.8l1.718,1.78c0.154-.095.324-0.179,0.474-0.259,0.19-.1.37-0.194,0.53-0.3a18.546,18.546,0,0,0,4.34-4.1,10.735,10.735,0,0,0,1.47-2.427c-0.45-.423-0.87-0.865-1.28-1.3-0.14-.154-0.29-0.308-0.44-0.463a2.587,2.587,0,0,1-.8-1.79,2.546,2.546,0,0,1,.8-1.79l1.43-1.482c0.17-.174.32-0.343,0.49-0.517,0.31-.338.64-0.686,0.97-1a2.372,2.372,0,0,1,1.69-.766,2.419,2.419,0,0,1,1.71.771l1.79,1.86a3.811,3.811,0,0,1,1.1,2.447,9.62,9.62,0,0,1-.66,3.979A23.374,23.374,0,0,1,1009.52,54.954ZM1013,44.182a2.684,2.684,0,0,0-.76-1.691l-1.79-1.85a1.265,1.265,0,0,0-.88-0.422,1.2,1.2,0,0,0-.86.433c-0.32.308-.63,0.631-0.95,0.975-0.17.174-.33,0.348-0.5,0.527l-1.43,1.482a1.186,1.186,0,0,0,0,1.86c0.15,0.154.29,0.313,0.44,0.467,0.45,0.467.87,0.91,1.33,1.333,0.01,0.01.01,0.015,0.02,0.025a0.988,0.988,0,0,1,.24,1.1c0,0.015-.01.025-0.01,0.04a11.891,11.891,0,0,1-1.69,2.839,19.441,19.441,0,0,1-4.62,4.367,6.944,6.944,0,0,1-.64.358,4.9,4.9,0,0,0-.52.3l-0.06.03a0.943,0.943,0,0,1-.462.124,1.006,1.006,0,0,1-.715-0.338l-1.8-1.86a1.251,1.251,0,0,0-.878-0.443,1.19,1.19,0,0,0-.849.443l-2.894,2.994a1.226,1.226,0,0,0,.015,1.875c0.2,0.224.412,0.438,0.638,0.662a14.127,14.127,0,0,1,1,1.079,2.591,2.591,0,0,0,2.058.905c0.082,0,.168-0.005.25-0.01a11.293,11.293,0,0,0,4.139-1.283,23.6,23.6,0,0,0,7.78-6.316,22.4,22.4,0,0,0,3.79-6.54A8.284,8.284,0,0,0,1013,44.182Z" transform="translate(-987.156 -31)"/>
</svg>
