<svg xmlns="http://www.w3.org/2000/svg" width="63" height="69" viewBox="0 0 63 69">
  <defs>
    <style>
      .cls-1 {
        fill: #60bb48;
        fill-rule: evenodd;
      }
    </style>
  </defs>
  <path id="Forma_1" data-name="Forma 1" class="cls-1" d="M1160.32,1389.69a3.993,3.993,0,0,0,2.91-1.68l10.45-14.89a1.153,1.153,0,0,0-.11-1.48,1.1,1.1,0,0,0-1.45-.12l-14.45,10.77a4.164,4.164,0,0,0-.47,6.21,3.906,3.906,0,0,0,2.81,1.2C1160.11,1389.7,1160.21,1389.7,1160.32,1389.69Zm-2.05-4.23a1.82,1.82,0,0,1,.71-1.31l8.82-6.57-6.38,9.08a1.749,1.749,0,0,1-1.28.73,1.713,1.713,0,0,1-1.37-.52A1.814,1.814,0,0,1,1158.27,1385.46Zm27.06-16.96a0.637,0.637,0,0,0-.02-0.07,0.147,0.147,0,0,0-.05-0.06,30.828,30.828,0,0,0-3.98-5.53l2.4-2.47,1.58,1.62,4.73-4.88-4.73-4.87-4.74,4.87,1.58,1.63-2.4,2.47a30.162,30.162,0,0,0-5.37-4.1,0.317,0.317,0,0,0-.06-0.05,0.363,0.363,0,0,1-.07-0.03,29.283,29.283,0,0,0-11.47-3.91v-1.37h1.68a2.876,2.876,0,0,0-.01-5.75h-10.05a2.876,2.876,0,0,0,0,5.75h1.68v1.33a29.414,29.414,0,0,0-3.6.61,1.157,1.157,0,0,0-.84,1.38,1.125,1.125,0,0,0,1.34.87,25.49,25.49,0,0,1,3.1-.55l1.2-.1c0.37-.03.7-0.05,1.03-0.06v2.27a1.12,1.12,0,1,0,2.24,0v-2.27a26.965,26.965,0,0,1,11.67,3.28l-1.1,1.96a1.171,1.171,0,0,0,.41,1.57,1.148,1.148,0,0,0,.56.15,1.117,1.117,0,0,0,.97-0.57l1.09-1.96a28.4,28.4,0,0,1,8.68,8.94l-1.9,1.13a1.181,1.181,0,0,0-.41,1.57,1.117,1.117,0,0,0,.97.57,1.049,1.049,0,0,0,.56-0.15l1.91-1.13a29.2,29.2,0,0,1,3.18,12.21h-2.21a1.151,1.151,0,0,0,0,2.3h2.21a29.236,29.236,0,0,1-3.18,12.21l-1.91-1.13a1.1,1.1,0,0,0-1.53.42,1.181,1.181,0,0,0,.41,1.57l1.91,1.13a28.721,28.721,0,0,1-8.68,8.94l-1.1-1.96a1.1,1.1,0,0,0-1.53-.42,1.169,1.169,0,0,0-.41,1.57l1.11,1.96a27.136,27.136,0,0,1-11.68,3.27v-2.26a1.116,1.116,0,1,0-2.23,0v2.27a26.877,26.877,0,0,1-5.34-.71,1.117,1.117,0,0,0-1.34.87,1.149,1.149,0,0,0,.84,1.37,29.335,29.335,0,0,0,6.77.8h0.18c0.01,0,.02-0.01.03-0.01a29.315,29.315,0,0,0,14.76-4.1c0.03-.02.07-0.03,0.1-0.05s0.04-.04.06-0.05a30.767,30.767,0,0,0,10.91-11.23,0.705,0.705,0,0,0,.07-0.09,0.637,0.637,0,0,0,.02-0.07A31.7,31.7,0,0,0,1185.33,1368.5Zm-0.07-13.01,1.58,1.62-1.58,1.63-1.58-1.63Zm-27-2.57v-3.47h-3.91a0.576,0.576,0,0,1,0-1.15h10.05a0.575,0.575,0,0,1,0,1.15h-3.9v3.47c-0.39-.01-0.76-0.02-1.12-0.02h-0.18c-0.19,0-.37.01-0.55,0.02h-0.39Zm-8.93,9.18h-5.58a1.15,1.15,0,0,0,0,2.3h5.58A1.15,1.15,0,0,0,1149.33,1362.1Zm0,8.05h-11.17a1.151,1.151,0,0,0,0,2.3h11.17A1.15,1.15,0,0,0,1149.33,1370.15Zm0,8.05h-16.75a1.15,1.15,0,0,0,0,2.3h16.75A1.15,1.15,0,0,0,1149.33,1378.2Zm0,8.05h-21.22a1.15,1.15,0,0,0,0,2.3h21.22A1.15,1.15,0,0,0,1149.33,1386.25Zm0,8.05h-14.52a1.15,1.15,0,0,0,0,2.3h14.52A1.15,1.15,0,0,0,1149.33,1394.3Zm0,8.05h-7.82a1.151,1.151,0,0,0,0,2.3h7.82A1.15,1.15,0,0,0,1149.33,1402.35Z" transform="translate(-1127 -1346)"/>
</svg>
