<svg id="HORAIRES" xmlns="http://www.w3.org/2000/svg" width="35" height="35" viewBox="0 0 35 35">
  <defs>
    <style>
      .cls-1 {
        fill: #00478f;
        fill-rule: evenodd;
      }
    </style>
  </defs>
  <path id="Forma_1" data-name="Forma 1" class="cls-1" d="M1213.76,58.942V59.1c-0.01.158-.01,0.317-0.01,0.476s0,0.335.01,0.515a0.5,0.5,0,0,0,.02.121v0.009c0.01,0.039.02,0.076,0.03,0.112,0,0,.01.007,0.01,0.011a0.415,0.415,0,0,0,.05.1s0.01,0.008.01,0.012a0.42,0.42,0,0,0,.07.089s0,0,.01.007l0.09,0.1c0.07,0.076.14,0.152,0.22,0.226a17.516,17.516,0,0,0,24.75,0c0.07-.074.14-0.15,0.22-0.226l0.09-.1a17.5,17.5,0,1,0-29.15-6.113,0.712,0.712,0,0,0,1.34-.483,16.078,16.078,0,1,1,26.78,5.613c-0.04.036-.07,0.072-0.11,0.109-0.06.064-.11,0.129-0.18,0.192a16.1,16.1,0,0,1-22.74,0l-0.09-.1a1.279,1.279,0,0,1-.01-0.194c0-.143,0-0.286.01-0.429,0-.048.01-0.095,0.01-0.142m0.01-.283" transform="translate(-1209.16 -31)"/>
  <path id="Forma_1-2" data-name="Forma 1" class="cls-1" d="M1227.58,48.328V38.41a1.106,1.106,0,0,0-1.11-1.072,1.08,1.08,0,0,0-1.05,1.072V48.481a0.844,0.844,0,0,1,.04.153,0.991,0.991,0,0,0,.28.862l5.73,5.724a1.083,1.083,0,0,0,1.47,0,1.034,1.034,0,0,0,0-1.493Z" transform="translate(-1209.16 -31)"/>
</svg>
